<?xml version="1.0" encoding="iso-8859-1"?>
<!-- Generator: Adobe Illustrator 21.0.0, SVG Export Plug-In . SVG Version: 6.00 Build 0)  -->
<svg xmlns="http://www.w3.org/2000/svg" xmlns:xlink="http://www.w3.org/1999/xlink" version="1.1" id="Capa_1" x="0px" y="0px" viewBox="0 0 512.078 512.078" style="enable-background:new 0 0 512.078 512.078;" xml:space="preserve" width="512" height="512">
<g>
	<g>
		<path style="fill:#FFA726;" d="M150.195,504.539H7.52v-29.938c0-25.411,20.6-46.011,46.011-46.011h50.653    c25.411,0,46.011,20.6,46.011,46.011V504.539z"/>
	</g>
	<g>
		<path style="fill:#FFA726;" d="M327.357,504.539H184.683v-29.938c0-25.411,20.6-46.011,46.011-46.011h50.654    c25.411,0,46.011,20.6,46.011,46.011V504.539z"/>
	</g>
	<g>
		<path style="fill:#FFA726;" d="M504.52,504.539H361.845v-29.938c0-25.411,20.6-46.011,46.011-46.011h50.654    c25.411,0,46.011,20.6,46.011,46.011V504.539z"/>
	</g>
	<g>
		<path style="fill:#F57C00;" d="M102.134,428.591c5.082,7.4,8.061,16.356,8.061,26.01c0,17.289-13.764,29.938-29.629,29.938H7.52    v20h142.675v-29.938C150.195,451.019,132.149,428.591,102.134,428.591z"/>
	</g>
	<g>
		<path style="fill:#F57C00;" d="M279.296,428.591c5.082,7.4,8.061,16.356,8.061,26.01c0,17.289-13.764,29.938-29.629,29.938    h-73.045v20h142.675v-29.938C327.357,451.019,309.312,428.591,279.296,428.591z"/>
	</g>
	<g>
		<path style="fill:#F57C00;" d="M456.459,428.591c5.082,7.4,8.061,16.356,8.061,26.01c0,17.289-13.764,29.938-29.629,29.938    h-73.045v20H504.52v-29.938C504.52,451.019,486.474,428.591,456.459,428.591z"/>
	</g>
	<g>
		<path style="fill:#9CCC65;" d="M111.626,319.333c0,40.326-32.769,58.438-32.769,58.438s-32.769-18.112-32.769-58.438    s32.769-58.438,32.769-58.438S111.626,279.007,111.626,319.333z"/>
	</g>
	<g>
		<path style="fill:#689F38;" d="M148.644,329.914c0,0-18.793-5.409-38.532,3.993c-6.438,30.142-31.255,43.864-31.255,43.864v21.93    c0,0,30.381,8.752,54.46-15.327C157.396,360.295,148.644,329.914,148.644,329.914z"/>
	</g>
	<g>
		<path style="fill:#9CCC65;" d="M47.603,333.907c-19.739-9.402-38.532-3.993-38.532-3.993s-8.752,30.381,15.327,54.46    c24.079,24.079,54.46,15.327,54.46,15.327v-21.93C78.857,377.771,54.041,364.049,47.603,333.907z"/>
	</g>
	<g>
		<path style="fill:#9CCC65;" d="M288.789,319.333c0,40.326-32.769,58.438-32.769,58.438s-32.769-18.112-32.769-58.438    s32.769-58.438,32.769-58.438S288.789,279.007,288.789,319.333z"/>
	</g>
	<g>
		<path style="fill:#689F38;" d="M325.807,329.914c0,0-18.793-5.409-38.532,3.993c-6.438,30.142-31.255,43.864-31.255,43.864v21.93    c0,0,30.381,8.752,54.46-15.327C334.558,360.295,325.807,329.914,325.807,329.914z"/>
	</g>
	<g>
		<path style="fill:#9CCC65;" d="M224.765,333.907c-19.739-9.402-38.532-3.993-38.532-3.993s-8.752,30.381,15.327,54.46    c24.079,24.079,54.46,15.327,54.46,15.327v-21.93C256.02,377.771,231.203,364.049,224.765,333.907z"/>
	</g>
	<g>
		<path style="fill:#9CCC65;" d="M465.952,319.333c0,40.326-32.769,58.438-32.769,58.438s-32.769-18.112-32.769-58.438    s32.769-58.438,32.769-58.438S465.952,279.007,465.952,319.333z"/>
	</g>
	<g>
		<path style="fill:#689F38;" d="M80.42,261.852c6.143,9.235,11.207,21.635,11.207,37.48c0,40.326-32.769,58.438-32.769,58.438    s-0.578-0.322-1.562-0.958c9.49,14.268,21.562,20.958,21.562,20.958s32.769-18.112,32.769-58.438    C111.626,284.309,86.92,266.051,80.42,261.852z"/>
	</g>
	<g>
		<path style="fill:#689F38;" d="M257.582,261.852c6.143,9.235,11.207,21.635,11.207,37.48c0,40.326-32.769,58.438-32.769,58.438    s-0.578-0.322-1.562-0.958c9.49,14.268,21.562,20.958,21.562,20.958s32.769-18.112,32.769-58.438    C288.789,284.309,264.082,266.051,257.582,261.852z"/>
	</g>
	<g>
		<path style="fill:#689F38;" d="M434.745,261.852c6.143,9.235,11.207,21.635,11.207,37.48c0,40.326-32.769,58.438-32.769,58.438    s-0.578-0.322-1.562-0.958c9.49,14.268,21.562,20.958,21.562,20.958s32.769-18.112,32.769-58.438    C465.952,284.309,441.245,266.051,434.745,261.852z"/>
	</g>
	<g>
		<path style="fill:#689F38;" d="M502.969,329.914c0,0-18.793-5.409-38.532,3.993c-6.438,30.142-31.255,43.864-31.255,43.864v21.93    c0,0,30.381,8.752,54.46-15.327C511.721,360.295,502.969,329.914,502.969,329.914z"/>
	</g>
	<g>
		<path style="fill:#9CCC65;" d="M401.928,333.907c-19.739-9.402-38.532-3.993-38.532-3.993s-8.752,30.381,15.327,54.46    c24.079,24.079,54.46,15.327,54.46,15.327v-21.93C433.183,377.771,408.366,364.049,401.928,333.907z"/>
	</g>
	<g>
		<path style="fill:#CFD8DC;" d="M504.52,7.539h-497v36.379h48.538c3.109,0,5.63,2.521,5.63,5.63v26.617    c0,3.917,3.175,7.093,7.093,7.093h20.154c3.917,0,7.093-3.175,7.093-7.093V49.548c0-3.109,2.521-5.63,5.63-5.63h131.564    c3.109,0,5.63,2.521,5.63,5.63v26.617c0,3.917,3.175,7.093,7.093,7.093h20.154c3.917,0,7.093-3.175,7.093-7.093V49.548    c0-3.109,2.521-5.63,5.63-5.63h131.564c3.109,0,5.63,2.521,5.63,5.63v26.617c0,3.917,3.176,7.093,7.093,7.093h20.154    c3.917,0,7.093-3.175,7.093-7.093V49.548c0-3.109,2.521-5.63,5.63-5.63h48.538V7.539z"/>
	</g>
	<g>
		<path style="fill:#90A4AE;" d="M484.52,7.539v16.379h-48.538c-3.109,0-5.63,2.521-5.63,5.63v26.616    c0,3.917-3.176,7.093-7.093,7.093h-7.246v12.907c0,3.917,3.175,7.093,7.093,7.093h20.154c3.917,0,7.093-3.176,7.093-7.093V49.548    c0-3.109,2.521-5.63,5.63-5.63h48.538V7.539H484.52z"/>
	</g>
	<g>
		<path d="M501.201,455.839c-4.011,1.032-6.426,5.121-5.393,9.133c1.632,6.347,1.212,9.333,1.212,32.067H369.345v-22.438    c0-21.235,17.275-38.511,38.511-38.511h50.653c6.965,0,13.784,1.876,19.723,5.425c3.554,2.126,8.16,0.967,10.285-2.59    c2.125-3.556,0.966-8.16-2.59-10.285c-15.037-8.988-26.861-7.55-45.245-7.55v-12.58c19.387,1.683,37.969-4.539,52.263-18.833    c26.898-26.897,17.639-60.426,17.231-61.84c-0.714-2.479-2.653-4.418-5.133-5.131c-0.713-0.206-14.647-4.088-31.678,0.099    c0.049-1.144,0.086-2.295,0.086-3.473c0-44.241-35.146-64.176-36.642-65.003c-2.258-1.248-4.998-1.248-7.256,0    c-1.496,0.827-36.641,20.762-36.641,65.003c0,1.178,0.037,2.33,0.086,3.474c-17.03-4.187-30.964-0.306-31.678-0.1    c-2.479,0.713-4.419,2.651-5.133,5.131c-0.407,1.414-9.667,34.942,17.23,61.84c14.268,14.267,32.831,20.52,52.263,18.833v12.58    h-17.826c-29.506,0-53.511,24.005-53.511,53.511v29.938c0,4.143,3.357,7.5,7.5,7.5H504.52c4.143,0,7.5-3.357,7.5-7.5    c0-31.13,0.542-34.652-1.686-43.308C509.301,457.222,505.215,454.801,501.201,455.839z M496.594,336.334    c4.512,32.956-22.679,60.929-55.912,57.13v-11.598c7.537-5.254,23.852-18.972,30.179-42.553    C481.298,335.253,491.176,335.625,496.594,336.334z M433.181,269.855c30.428,22.181,34.074,65.73,7.501,92.489v-43.012    c0-4.143-3.357-7.5-7.5-7.5s-7.5,3.357-7.5,7.5v43.009C399.173,335.648,402.712,292.064,433.181,269.855z M369.772,336.305    c5.39-0.728,15.203-1.111,25.731,3.004c6.326,23.583,22.641,37.303,30.179,42.557v11.596    C392.372,397.268,365.249,369.2,369.772,336.305z"/>
		<path d="M138.621,389.678c26.897-26.897,17.638-60.426,17.23-61.84c-0.714-2.479-2.653-4.418-5.132-5.131    c-0.713-0.206-14.648-4.088-31.678,0.099c0.115-2.714,0.145-5.426-0.105-9.019c-0.286-4.133-3.864-7.237-8-6.965    c-4.132,0.286-7.25,3.868-6.964,8c1.25,18.118-4.902,34.721-17.614,47.522v-43.011c0-4.143-3.358-7.5-7.5-7.5s-7.5,3.357-7.5,7.5    v43.009c-26.554-26.739-22.939-70.265,7.469-92.466c3.331,2.459,8.454,6.794,13.189,13.064c2.497,3.307,7.199,3.963,10.505,1.466    c3.306-2.496,3.962-7.199,1.466-10.505c-9.848-13.042-21.029-19.311-21.5-19.57c-2.258-1.249-5-1.248-7.256-0.001    c-1.496,0.827-36.641,20.762-36.641,65.003c0,1.178,0.037,2.33,0.086,3.474c-17.03-4.188-30.964-0.306-31.678-0.1    c-2.479,0.713-4.418,2.651-5.132,5.131c-0.407,1.414-9.667,34.942,17.23,61.84c14.268,14.267,32.831,20.52,52.263,18.833v12.58    H53.531c-29.506,0-53.511,24.005-53.511,53.511v29.938c0,4.143,3.358,7.5,7.5,7.5h142.675c4.142,0,7.5-3.357,7.5-7.5v-29.938    c0-29.506-24.005-53.511-53.511-53.511H86.357v-12.58C105.744,410.194,124.327,403.972,138.621,389.678z M142.695,474.601v22.438    H15.02v-22.438c0-21.235,17.276-38.511,38.511-38.511h50.653C125.419,436.091,142.695,453.366,142.695,474.601z M116.536,339.312    c10.438-4.06,20.314-3.688,25.734-2.979c4.514,32.983-22.71,60.932-55.912,57.13v-11.598    C93.894,376.611,110.209,362.893,116.536,339.312z M15.447,336.305c5.388-0.728,15.202-1.11,25.731,3.004    c6.326,23.583,22.642,37.303,30.179,42.557v11.596C38.138,397.272,10.912,369.273,15.447,336.305z"/>
		<path d="M315.784,389.678c26.896-26.897,17.638-60.426,17.23-61.84c-0.714-2.479-2.653-4.418-5.133-5.131    c-0.713-0.206-14.648-4.088-31.679,0.1c0.049-1.144,0.086-2.296,0.086-3.474c0-44.241-35.145-64.176-36.641-65.003    c-2.258-1.249-4.999-1.247-7.256,0c-1.496,0.827-36.641,20.762-36.641,65.003c0,1.178,0.037,2.33,0.086,3.474    c-17.03-4.188-30.964-0.306-31.678-0.1c-2.479,0.713-4.418,2.651-5.132,5.131c-0.407,1.414-9.667,34.942,17.23,61.84    c14.268,14.267,32.831,20.52,52.263,18.833v12.58h-17.827c-29.506,0-53.511,24.005-53.511,53.511v29.938    c0,4.143,3.358,7.5,7.5,7.5h142.675c4.143,0,7.5-3.357,7.5-7.5v-29.938c0-29.506-24.005-53.511-53.511-53.511H263.52v-12.58    C282.948,410.198,301.517,403.943,315.784,389.678z M319.858,474.601v22.438H192.183v-22.438    c0-21.235,17.276-38.511,38.511-38.511h50.654C302.582,436.091,319.858,453.366,319.858,474.601z M319.432,336.334    c4.515,32.978-22.71,60.931-55.912,57.13v-11.598c7.537-5.254,23.851-18.972,30.178-42.553    C304.136,335.252,314.014,335.625,319.432,336.334z M256.019,269.855c30.426,22.182,34.074,65.729,7.501,92.489v-43.011    c0-4.143-3.357-7.5-7.5-7.5c-4.142,0-7.5,3.357-7.5,7.5v43.009C222.007,335.644,225.554,292.061,256.019,269.855z M192.61,336.305    c5.389-0.728,15.203-1.11,25.731,3.004c6.326,23.583,22.642,37.303,30.179,42.557v11.596    C215.309,397.27,188.074,369.278,192.61,336.305z"/>
		<path d="M7.52,51.418h46.668v24.746c0,8.047,6.546,14.593,14.593,14.593h20.153c8.046,0,14.593-6.546,14.593-14.593V51.418h81.823    c4.142,0,7.5-3.357,7.5-7.5s-3.358-7.5-7.5-7.5h-83.693c-7.24,0-13.13,5.89-13.13,13.13v26.209H69.188V49.548    c0-7.24-5.89-13.13-13.13-13.13H15.02V15.039h482v21.379h-41.038c-7.24,0-13.13,5.89-13.13,13.13v26.209h-19.339V49.548    c0-7.24-5.89-13.13-13.13-13.13H278.82c-7.24,0-13.13,5.89-13.13,13.13v26.209h-19.339V49.548c0-7.24-5.89-13.13-13.13-13.13    H220.35c-4.142,0-7.5,3.357-7.5,7.5s3.358,7.5,7.5,7.5h11.001v24.746c0,8.047,6.546,14.593,14.593,14.593h20.154    c8.047,0,14.593-6.546,14.593-14.593V51.418h127.823v24.746c0,8.047,6.546,14.593,14.593,14.593h20.153    c8.047,0,14.593-6.546,14.593-14.593V51.418h46.668c4.143,0,7.5-3.357,7.5-7.5V7.539c0-4.143-3.357-7.5-7.5-7.5h-497    c-4.142,0-7.5,3.357-7.5,7.5v36.379C0.02,48.06,3.378,51.418,7.52,51.418z"/>
		<path d="M86.357,116.676c0-4.143-3.358-7.5-7.5-7.5s-7.5,3.357-7.5,7.5v30.834c0,4.143,3.358,7.5,7.5,7.5s7.5-3.357,7.5-7.5    V116.676z"/>
		<path d="M78.857,171.741c-4.142,0-7.5,3.357-7.5,7.5v30.834c0,4.143,3.358,7.5,7.5,7.5s7.5-3.357,7.5-7.5v-30.834    C86.357,175.099,82.999,171.741,78.857,171.741z"/>
		<path d="M105.059,98.322c-2.929,2.93-2.929,7.678,0,10.607l21.803,21.803c2.93,2.929,7.678,2.928,10.606,0    c2.929-2.93,2.929-7.678,0-10.607l-21.803-21.803C112.736,95.394,107.987,95.394,105.059,98.322z"/>
		<path d="M263.52,116.676c0-4.143-3.357-7.5-7.5-7.5c-4.142,0-7.5,3.357-7.5,7.5v30.834c0,4.143,3.358,7.5,7.5,7.5    c4.143,0,7.5-3.357,7.5-7.5V116.676z"/>
		<path d="M256.02,171.741c-4.142,0-7.5,3.357-7.5,7.5v30.834c0,4.143,3.358,7.5,7.5,7.5c4.143,0,7.5-3.357,7.5-7.5v-30.834    C263.52,175.099,260.163,171.741,256.02,171.741z"/>
		<path d="M282.221,98.322c-2.929,2.93-2.929,7.678,0,10.607l21.803,21.803c2.931,2.929,7.678,2.928,10.607,0    c2.929-2.93,2.929-7.678,0-10.607l-21.803-21.803C289.899,95.394,285.151,95.394,282.221,98.322z"/>
		<path d="M358.872,164.367l-21.803-21.804c-2.929-2.929-7.678-2.93-10.606-0.001c-2.93,2.929-2.93,7.678-0.001,10.606    l21.803,21.804c2.928,2.928,7.677,2.931,10.606,0.001C361.8,172.045,361.8,167.296,358.872,164.367z"/>
		<path d="M219.212,98.322l-21.803,21.803c-2.929,2.93-2.929,7.678,0,10.607c2.93,2.929,7.678,2.928,10.606,0l21.803-21.803    c2.929-2.93,2.929-7.678,0-10.607C226.891,95.395,222.142,95.393,219.212,98.322z"/>
		<path d="M185.578,142.562c-2.929-2.928-7.678-2.929-10.606,0.001l-21.803,21.804c-4.74,4.739-1.318,12.803,5.303,12.803    c4.155,0,3.383-0.277,27.106-24.001C188.507,150.24,188.507,145.491,185.578,142.562z"/>
		<path d="M42.05,98.322l-21.803,21.803c-2.929,2.93-2.929,7.678,0,10.607c2.93,2.929,7.678,2.928,10.606,0l21.803-21.803    c2.929-2.93,2.929-7.678,0-10.607C49.728,95.395,44.979,95.393,42.05,98.322z"/>
		<path d="M440.682,116.676c0-4.143-3.357-7.5-7.5-7.5s-7.5,3.357-7.5,7.5v30.834c0,4.143,3.357,7.5,7.5,7.5s7.5-3.357,7.5-7.5    V116.676z"/>
		<path d="M433.182,171.741c-4.143,0-7.5,3.357-7.5,7.5v30.834c0,4.143,3.357,7.5,7.5,7.5s7.5-3.357,7.5-7.5v-30.834    C440.682,175.099,437.325,171.741,433.182,171.741z"/>
		<path d="M396.374,98.322l-21.803,21.803c-2.929,2.93-2.929,7.678,0,10.607c2.931,2.929,7.678,2.928,10.607,0l21.803-21.803    c2.929-2.93,2.929-7.678,0-10.607C404.052,95.394,399.304,95.394,396.374,98.322z"/>
		<path d="M459.383,98.322c-2.929,2.93-2.929,7.678,0,10.607l21.803,21.803c2.931,2.929,7.678,2.928,10.607,0    c2.929-2.93,2.929-7.678,0-10.607l-21.803-21.803C467.061,95.394,462.313,95.394,459.383,98.322z"/>
	</g>
</g>















</svg>
