<svg id="Layer_5" enable-background="new 0 0 64 64" height="512" viewBox="0 0 64 64" width="512" xmlns="http://www.w3.org/2000/svg"><g><g><g><path d="m18 28v14l-12 10v10h-4v-34h2 12z" fill="#aab2bd"/></g><g><path d="m43 24h-4c-1.66 0-3 1.34-3 3v15h7l3 2.73v-17.73c0-1.66-1.34-3-3-3z" fill="#cf9e76"/></g><g><path d="m29 24h-4c-1.66 0-3 1.34-3 3v15h10v-15c0-1.66-1.34-3-3-3z" fill="#cf9e76"/></g><g><path d="m58 20 2 34h-6v-2l-3.69-3.35 1.69-28.65h1 4z" fill="#ccd1d9"/></g><g><path d="m62 54v8h-8v-8h6z" fill="#aab2bd"/></g><g><path d="m6 52h26v10h-26z" fill="#ccd1d9"/></g><g><path d="m54 62h-22v-10l11-10 11 10z" fill="#e6e9ed"/></g><g><path d="m38 52h10v10h-10z" fill="#cf9e76"/></g><g><path d="m43 42-11 10h-26l12-10h4 10 4z" fill="#fcd770"/></g><g><path d="m2 2h16v4h-16z" fill="#aab2bd"/></g><g><path d="m18 6-2 6h-12l-2-6z" fill="#ccd1d9"/></g><g><path d="m16 12v16h-12v-16z" fill="#e6e9ed"/></g><g><path d="m8 16h4v8h-4z" fill="#69d6f4"/></g></g><g><path d="m58.943 19h-7.886l-1.617 27.503-2.44-2.218v-17.285c0-2.206-1.794-4-4-4h-1v-1c0-2.757-2.243-5-5-5h-6c-2.757 0-5 2.243-5 5v1h-1c-2.206 0-4 1.794-4 4v14h-2v-14h-2v-14.837l2-6v-5.163h-18v5.162l2 6v14.838h-2v36h62v-10h-2.057zm-6 2h4.114l1.883 32h-3.94v-1.442l-3.659-3.326zm-5.943 40h-8v-8h8zm-10-10v10h-4v-8.558l10-9.091 10 9.091v8.558h-4v-10zm-18.638-8h22.051l-8.8 8h-22.851zm12.638-8h-8v-4h8zm6-4h8v4h-8zm-30 22h24v8h-24zm36.387-12h-6.387v-4h8v5.467zm1.613-14v2h-8v-2c0-1.103.897-2 2-2h4c1.103 0 2 .897 2 2zm-17-5c0-1.654 1.346-3 3-3h6c1.654 0 3 1.346 3 3v1h-1c-2.206 0-4 1.794-4 4v14h-2v-14c0-2.206-1.794-4-4-4h-1zm-3 3h4c1.103 0 2 .897 2 2v2h-8v-2c0-1.103.897-2 2-2zm-2 12h8v4h-8zm-18.279-26-1.334-4h13.225l-1.333 4zm12.279-8v2h-14v-2zm-12 10h10v14h-10zm-2 16h14v12.532l-12 9.999v9.469h-2zm58 32h-6v-6h6z"/><path d="m54 7v2h5c1.103 0 2 .897 2 2s-.897 2-2 2c-1.654 0-3 1.346-3 3v1h2v-1c0-.551.449-1 1-1 2.206 0 4-1.794 4-4s-1.794-4-4-4h-3c0-2.206-1.794-4-4-4h-1v2h1c1.103 0 2 .897 2 2z"/><path d="m41 15h10c.551 0 1 .449 1 1v1h2v-1c0-1.654-1.346-3-3-3h-10c-.551 0-1-.449-1-1s.449-1 1-1h3 1 3v-2h-3-1c-1.103 0-2-.897-2-2s.897-2 2-2h1v-2h-1c-2.206 0-4 1.794-4 4 0 .749.22 1.442.58 2.042-1.455.207-2.58 1.448-2.58 2.958 0 1.654 1.346 3 3 3z"/><path d="m47 3h2v2h-2z"/><path d="m7 15v10h6v-10zm4 8h-2v-6h2z"/><path d="m13 31h2v2h-2z"/><path d="m9 31h2v2h-2z"/><path d="m5 31h2v2h-2z"/><path d="m5 35h2v2h-2z"/><path d="m9 35h2v2h-2z"/><path d="m13 35h2v2h-2z"/><path d="m5 39h2v2h-2z"/><path d="m13 39h2v2h-2z"/><path d="m9 39h2v2h-2z"/><path d="m9 43h2v2h-2z"/><path d="m5 43h2v2h-2z"/></g></g></svg>