<svg id="Layer_5" enable-background="new 0 0 64 64" height="512" viewBox="0 0 64 64" width="512" xmlns="http://www.w3.org/2000/svg"><g><g><g><path d="m22 14c0 2.7-1.34 5.09-3.38 6.53h-.01l-.17-1.55c-.25-2.27-2.16-3.98-4.44-3.98-1.14 0-2.19.43-2.98 1.14-.8.71-1.34 1.7-1.46 2.84l-.17 1.55h-.01c-2.04-1.44-3.38-3.83-3.38-6.53 0-4.42 3.58-8 8-8s8 3.58 8 8z" fill="#e6e9ed"/></g><g><path d="m45.38 20.53c-2.04-1.44-3.38-3.83-3.38-6.53 0-4.42 3.58-8 8-8s8 3.58 8 8c0 2.7-1.34 5.09-3.38 6.53h-.01l-.17-1.55c-.12-1.14-.66-2.13-1.46-2.84-.76-.68-1.75-1.1-2.84-1.13-.05-.01-.09-.01-.14-.01-2.28 0-4.19 1.71-4.44 3.98l-.17 1.55z" fill="#e6e9ed"/></g><g><path d="m24.4 8c1.02 1.76 1.6 3.81 1.6 6 0 2.18-.58 4.23-1.61 6-1.22 2.12-3.07 3.82-5.29 4.87l-.49-4.34h.01c2.04-1.44 3.38-3.83 3.38-6.53 0-4.42-3.58-8-8-8s-8 3.58-8 8c0 2.7 1.34 5.09 3.38 6.53h.01l-.49 4.34c-4.08-1.92-6.9-6.06-6.9-10.87 0-6.63 5.37-12 12-12 4.45 0 8.33 2.42 10.4 6z" fill="#aab2bd"/></g><g><path d="m39.6 8c2.07-3.58 5.95-6 10.4-6 6.63 0 12 5.37 12 12 0 4.81-2.82 8.95-6.9 10.87l-.49-4.34h.01c2.04-1.44 3.38-3.83 3.38-6.53 0-4.42-3.58-8-8-8s-8 3.58-8 8c0 2.7 1.34 5.09 3.38 6.53h.01l-.49 4.34c-2.22-1.05-4.07-2.75-5.29-4.87-1.03-1.76-1.61-3.81-1.61-6s.58-4.24 1.6-6z" fill="#aab2bd"/></g><g><path d="m39.61 20c1.22 2.12 3.07 3.82 5.29 4.87l-.12 1.13h-6.78v-6z" fill="#d3a06c"/></g><g><path d="m38 14c0 2.19.58 4.24 1.61 6h-1.61-4v-6z" fill="#d3a06c"/></g><g><path d="m32 20v6h-6v-6h4z" fill="#d3a06c"/></g><g><path d="m30 14v6h-4-1.61c1.03-1.77 1.61-3.82 1.61-6z" fill="#d3a06c"/></g><g><path d="m32 8v6h-2-4c0-2.19-.58-4.24-1.6-6h4.6z" fill="#d3a06c"/></g><g><path d="m35 2v6h-3-3v-6z" fill="#d3a06c"/></g><g><path d="m35 2h15c-4.45 0-8.33 2.42-10.4 6h-4.6z" fill="#b27946"/></g><g><path d="m29 2v6h-4.6c-2.07-3.58-5.95-6-10.4-6z" fill="#b27946"/></g><g><path d="m35 8h4.6c-1.02 1.76-1.6 3.81-1.6 6h-4-2v-6z" fill="#b27946"/></g><g><path d="m34 14v6h-2-2v-6h2z" fill="#b27946"/></g><g><path d="m34 20h4v6h-6v-6z" fill="#b27946"/></g><g><path d="m26 20v6h-6.78l-.12-1.13c2.22-1.05 4.07-2.75 5.29-4.87z" fill="#b27946"/></g><g><path d="m19.22 26-.12-1.13-.49-4.34-.17-1.55c-.25-2.27-2.16-3.98-4.44-3.98-1.14 0-2.19.43-2.98 1.14-.8.71-1.34 1.7-1.46 2.84l-.17 1.55-.49 4.34-.9 8.13 6 1 6-1z" fill="#69d6f4"/></g><g><path d="m55.1 24.87-.49-4.34-.17-1.55c-.12-1.14-.66-2.13-1.46-2.84-.76-.68-1.75-1.1-2.84-1.13-.05-.01-.09-.01-.14-.01-2.28 0-4.19 1.71-4.44 3.98l-.17 1.55-.49 4.34-.12 1.13-.78 7v2 10h6 6v-10-2z" fill="#69d6f4"/></g><g><path d="m14.93 48.07c-.89.08-1.7.23-2.45.42v-.01l-.77-.77c-.46-.46-.71-1.07-.71-1.71s.25-1.25.71-1.71l1.29-1.29 3-3 1.29-1.29c.46-.46 1.07-.71 1.71-.71s1.25.25 1.71.71l11.29 11.29c-1.75 0-3.09.3-4.23.78v-.01l-7.77-7.77z" fill="#ccd1d9"/></g><g><path d="m16.5 48c-.55 0-1.07.02-1.57.07l5.07-5.07 7.77 7.77v.01c-.53.22-1.02.47-1.47.75-2.06-1.58-4.88-3.53-9.8-3.53z" fill="#e6e9ed"/></g><g><path d="m57.3 51.53c-1.2.73-2.19 1.62-3.3 2.41l-.06.08c-1.58-1.11-3.42-2.02-6.44-2.02-3.01 0-4.84.9-6.42 2-1.14-.8-2.16-1.72-3.38-2.47 2.06-1.58 4.88-3.53 9.8-3.53s7.74 1.95 9.8 3.53z" fill="#4fc1e9"/></g><g><path d="m63 54v4c-2.56 0-4.28-.66-5.7-1.53.13-.1.27-.2.4-.31 1.74-1.35 2.79-2.16 5.3-2.16z" fill="#4fc1e9"/></g><g><path d="m63 50v4c-2.51 0-3.56.81-5.3 2.16-.13.11-.27.21-.4.31-1.22-.75-2.22-1.65-3.36-2.45l.06-.08c1.11-.79 2.1-1.68 3.3-2.41 1.42-.88 3.14-1.53 5.7-1.53z" fill="#4fc1e9"/></g><g><path d="m41.08 54c-1.15.81-2.16 1.72-3.38 2.47-.14-.1-.27-.2-.4-.31-1.74-1.35-2.79-2.16-5.3-2.16s-3.56.81-5.3 2.16c-.14.1-.27.21-.4.31-1.23-.75-2.24-1.67-3.39-2.47 1.15-.8 2.16-1.72 3.39-2.47.45-.28.94-.53 1.47-.75 1.14-.48 2.48-.78 4.23-.78 2.56 0 4.27.66 5.7 1.53 1.22.75 2.24 1.67 3.38 2.47z" fill="#4fc1e9"/></g><g><path d="m63 58v4c-5.24 0-8.11-2.22-10.2-3.84-1.74-1.35-2.79-2.16-5.3-2.16s-3.56.81-5.3 2.16c-2.1 1.62-4.96 3.84-10.2 3.84-5.25 0-8.11-2.22-10.2-3.84-1.74-1.35-2.79-2.16-5.3-2.16s-3.56.81-5.3 2.16c-2.09 1.62-4.96 3.84-10.2 3.84v-4c2.56 0 4.28-.66 5.7-1.53 1.22-.75 2.22-1.65 3.36-2.45 1.58-1.11 3.42-2.02 6.44-2.02 3 0 4.83.9 6.41 2 1.15.8 2.16 1.72 3.39 2.47 1.42.87 3.14 1.53 5.7 1.53s4.28-.66 5.7-1.53c1.22-.75 2.23-1.66 3.38-2.47 1.58-1.1 3.41-2 6.42-2 3.02 0 4.86.91 6.44 2.02 1.14.8 2.14 1.7 3.36 2.45 1.42.87 3.14 1.53 5.7 1.53z" fill="#4fc1e9"/></g><g><path d="m37.3 56.16c.13.11.26.21.4.31-1.42.87-3.14 1.53-5.7 1.53s-4.28-.66-5.7-1.53c.13-.1.26-.21.4-.31 1.74-1.35 2.79-2.16 5.3-2.16s3.56.81 5.3 2.16z" fill="#4fc1e9"/></g><g><path d="m6.3 56.16c.13.11.27.21.4.31-1.42.87-3.14 1.53-5.7 1.53v-4c2.51 0 3.56.81 5.3 2.16z" fill="#4fc1e9"/></g><g><path d="m6.7 51.53c1.19.73 2.19 1.62 3.3 2.41l.06.08c-1.14.8-2.14 1.7-3.36 2.45-.13-.1-.27-.2-.4-.31-1.74-1.35-2.79-2.16-5.3-2.16v-4c2.56 0 4.28.65 5.7 1.53z" fill="#4fc1e9"/></g><g><path d="m26.3 51.53c-1.23.75-2.24 1.67-3.39 2.47-1.58-1.1-3.41-2-6.41-2-3.02 0-4.86.91-6.44 2.02l-.06-.08c-1.11-.79-2.11-1.68-3.3-2.41 1.42-1.09 3.2-2.35 5.78-3.04.75-.19 1.56-.34 2.45-.42.5-.05 1.02-.07 1.57-.07 4.92 0 7.74 1.95 9.8 3.53z" fill="#4fc1e9"/></g><g><path d="m10.879 37.879h4.243v4.243h-4.243z" fill="#fc6e51" transform="matrix(.707 -.707 .707 .707 -24.477 20.908)"/></g></g><g><path d="m49 18h2v19h-2z"/><path d="m7.834 25.441-.828 7.449 1.988.221 1.559-14.024c.194-1.761 1.676-3.087 3.447-3.087s3.253 1.326 3.447 3.086l1.559 14.024 1.988-.221-.654-5.889h23.32l-.655 5.89 1.988.221 1.559-14.024c.195-1.761 1.677-3.087 3.448-3.087s3.253 1.326 3.447 3.086l1.559 14.024 1.988-.221-.828-7.449c4.172-2.255 6.834-6.666 6.834-11.44 0-7.168-5.832-13-13-13h-36c-7.168 0-13 5.832-13 13 0 4.774 2.662 9.185 6.834 11.441zm6.166-11.441c-2.661 0-4.889 1.911-5.359 4.492-1.044-1.247-1.641-2.833-1.641-4.492 0-3.859 3.141-7 7-7s7 3.141 7 7c0 1.659-.598 3.244-1.641 4.492-.47-2.581-2.697-4.492-5.359-4.492zm17 7v4h-4v-4zm2-6v4h-2v-4zm0 6h4v4h-4zm6 0h.058c1.021 1.597 2.391 2.969 4.024 4h-4.082zm-4-2v-4h2.041c.109 1.392.447 2.739.976 4zm2.051-6h-4.051v-4h5.003c-.522 1.247-.844 2.593-.952 4zm-7.051-6v-4h4v4zm1 2v4h-4.051c-.108-1.407-.431-2.753-.952-4zm-4.041 6h2.041v4h-3.017c.529-1.261.867-2.608.976-4zm-2.017 6h.058v4h-4.082c1.633-1.031 3.003-2.403 4.024-4zm25.058-7c-2.662 0-4.889 1.911-5.359 4.492-1.043-1.247-1.641-2.833-1.641-4.492 0-3.859 3.141-7 7-7s7 3.141 7 7c0 1.659-.598 3.245-1.641 4.492-.47-2.581-2.697-4.492-5.359-4.492zm11 0c0 3.763-1.955 7.259-5.076 9.264l-.255-2.295c2.089-1.703 3.331-4.258 3.331-6.969 0-4.963-4.037-9-9-9s-9 4.037-9 9c0 2.711 1.242 5.266 3.331 6.969l-.255 2.295c-3.121-2.005-5.076-5.501-5.076-9.264 0-6.065 4.935-11 11-11s11 4.935 11 11zm-21.937-7h-3.063v-4h7.104c-1.623 1.021-3.005 2.387-4.041 4zm-11.063-4v4h-3.063c-1.036-1.613-2.417-2.979-4.041-4zm-14 0c6.065 0 11 4.935 11 11 0 3.763-1.955 7.259-5.076 9.264l-.255-2.294c2.089-1.703 3.331-4.258 3.331-6.97 0-4.963-4.037-9-9-9s-9 4.037-9 9c0 2.711 1.242 5.266 3.331 6.969l-.255 2.295c-3.121-2.005-5.076-5.501-5.076-9.264 0-6.065 4.935-11 11-11z"/><path d="m13 32h2v2h-2z"/><path d="m13 18h2v12h-2z"/><path d="m47.499 55c-2.849 0-4.134.994-5.916 2.373-2.088 1.616-4.686 3.627-9.586 3.627s-7.498-2.012-9.586-3.628c-1.778-1.377-3.063-2.372-5.913-2.372-2.849 0-4.134.995-5.913 2.373-2.088 1.616-4.686 3.627-9.585 3.627v2c5.583 0 8.729-2.435 10.811-4.046 1.679-1.301 2.522-1.954 4.687-1.954 2.166 0 3.009.652 4.689 1.954 2.082 1.611 5.225 4.046 10.81 4.046 5.584 0 8.729-2.435 10.813-4.048 1.68-1.3 2.523-1.952 4.688-1.952 2.166 0 3.009.652 4.69 1.955 2.083 1.61 5.228 4.045 10.812 4.045v-2c-4.9 0-7.498-2.011-9.588-3.628-1.778-1.377-3.063-2.372-5.913-2.372z"/><path d="m47.499 47c-5.022 0-8.092 1.996-9.89 3.342-1.337-.719-2.974-1.253-5.172-1.32l-11.023-11.022c-1.289-1.289-3.539-1.289-4.828 0l-.586.586-3-3-4.414 4.414 3 3-.586.586c-.645.645-1 1.502-1 2.414 0 .746.249 1.448.688 2.034-1.792.687-3.117 1.588-4.078 2.307-1.429-.768-3.179-1.341-5.61-1.341v2c3.534 0 5.285 1.355 7.139 2.791.09.07.184.137.275.206-.092.071-.186.142-.277.212-.46.356-.914.707-1.39 1.034-1.693-1.307-2.989-2.243-5.747-2.243v2c1.759 0 2.651.438 3.82 1.295-1.034.426-2.244.705-3.82.705v2c4.217 0 6.418-1.705 8.361-3.209 1.854-1.436 3.605-2.791 7.137-2.791 3.533 0 5.284 1.355 7.138 2.791 1.943 1.504 4.145 3.209 8.361 3.209 4.218 0 6.42-1.705 8.363-3.209 1.854-1.436 3.606-2.791 7.139-2.791s5.284 1.355 7.138 2.791c1.943 1.504 4.145 3.209 8.363 3.209v-2c-1.576 0-2.787-.279-3.821-.705 1.17-.857 2.062-1.295 3.821-1.295v-2c-2.758 0-4.054.935-5.748 2.244-.477-.327-.931-.678-1.391-1.035-.09-.07-.184-.141-.276-.211.091-.07.185-.137.276-.207 1.854-1.436 3.605-2.791 7.139-2.791v-2c-2.432 0-4.183.574-5.611 1.342-1.799-1.346-4.869-3.342-9.89-3.342zm-36.085-7 1.586-1.586 1.586 1.586-1.586 1.586zm1 7c-.267-.268-.414-.622-.414-1s.147-.732.414-1l5.586-5.586c.535-.533 1.465-.533 2 0l9.78 9.78c-.628.106-1.221.24-1.752.42l-8.028-8.028-5.529 5.529c-.585.067-1.139.162-1.663.278zm12.503 2.331c-1.716-1.063-4.146-2.142-7.527-2.306l2.61-2.61zm-14.789 3.453c-.255-.191-.513-.38-.764-.574-.3-.232-.611-.468-.93-.703 1.918-1.322 4.341-2.507 8.064-2.507 3.724 0 6.148 1.185 8.066 2.507-.318.234-.629.47-.929.702-.251.195-.511.383-.767.574-1.559-.983-3.49-1.783-6.37-1.783s-4.811.8-6.37 1.784zm18.05 3.511c1.169-.857 2.061-1.295 3.819-1.295s2.65.437 3.82 1.295c-1.034.426-2.244.705-3.82.705-1.575 0-2.785-.279-3.819-.705zm9.566-1.051c-1.692-1.308-2.988-2.244-5.747-2.244-2.76 0-4.055.936-5.746 2.244-.476-.327-.93-.678-1.391-1.035-.09-.07-.185-.141-.277-.212.091-.07.186-.137.277-.207 1.854-1.435 3.604-2.79 7.137-2.79 3.534 0 5.285 1.355 7.14 2.791.09.07.185.136.276.206-.092.071-.186.142-.277.212-.461.357-.915.708-1.392 1.035zm9.755-4.244c-2.881 0-4.812.8-6.372 1.783-.256-.191-.515-.379-.766-.573-.3-.232-.61-.468-.929-.702 1.919-1.323 4.344-2.508 8.067-2.508s6.147 1.185 8.066 2.508c-.318.235-.629.47-.928.702-.252.194-.51.384-.765.575-1.561-.984-3.492-1.785-6.373-1.785z"/><path d="m49 39h2v2h-2z"/><path d="m49 43h2v2h-2z"/><path d="m55 35h2v2h-2z"/><path d="m55 39h2v2h-2z"/><path d="m55 43h2v2h-2z"/><path d="m43 39h2v2h-2z"/><path d="m43 35h2v2h-2z"/></g></g></svg>